<svg width="200" height="140" viewBox="0 0 200 140" fill="none" xmlns="http://www.w3.org/2000/svg">
<path d="M20.9201 26.9701L17.0801 24.7301V24.1101L20.9201 21.8701V22.6501L17.9601 24.4001V24.4401L20.9201 26.1901V26.9701ZM24.6462 25.8101L24.5362 23.2701V20.8401H25.4562V23.2701L25.3362 25.8101H24.6462ZM24.9962 28.0601C24.7962 28.0601 24.6229 27.9868 24.4762 27.8401C24.3295 27.6934 24.2562 27.5201 24.2562 27.3201C24.2562 27.1201 24.3295 26.9468 24.4762 26.8001C24.6229 26.6534 24.7962 26.5801 24.9962 26.5801C25.2029 26.5801 25.3762 26.6534 25.5162 26.8001C25.6629 26.9468 25.7362 27.1201 25.7362 27.3201C25.7362 27.5201 25.6629 27.6934 25.5162 27.8401C25.3695 27.9868 25.1962 28.0601 24.9962 28.0601ZM28.5923 28.0001V20.8401H30.3623C31.0356 20.8401 31.6056 20.9834 32.0723 21.2701C32.5456 21.5501 32.9056 21.9568 33.1523 22.4901C33.4056 23.0234 33.5323 23.6668 33.5323 24.4201C33.5323 25.1734 33.4056 25.8168 33.1523 26.3501C32.9056 26.8834 32.5456 27.2934 32.0723 27.5801C31.6056 27.8601 31.0356 28.0001 30.3623 28.0001H28.5923ZM29.4423 27.1901H30.3523C31.079 27.1901 31.649 26.9701 32.0623 26.5301C32.4756 26.0834 32.6823 25.3801 32.6823 24.4201C32.6823 23.4601 32.4756 22.7601 32.0623 22.3201C31.649 21.8734 31.079 21.6501 30.3523 21.6501H29.4423V27.1901ZM36.9884 28.1601C36.4284 28.1601 35.9484 28.0034 35.5484 27.6901C35.155 27.3768 34.8517 26.9401 34.6384 26.3801C34.4317 25.8134 34.3284 25.1601 34.3284 24.4201C34.3284 23.6734 34.4317 23.0201 34.6384 22.4601C34.8517 21.9001 35.155 21.4634 35.5484 21.1501C35.9484 20.8368 36.4284 20.6801 36.9884 20.6801C37.5484 20.6801 38.025 20.8368 38.4184 21.1501C38.8184 21.4634 39.1217 21.9001 39.3284 22.4601C39.5417 23.0201 39.6484 23.6734 39.6484 24.4201C39.6484 25.1601 39.5417 25.8134 39.3284 26.3801C39.1217 26.9401 38.8184 27.3768 38.4184 27.6901C38.025 28.0034 37.5484 28.1601 36.9884 28.1601ZM36.9884 27.3501C37.555 27.3501 37.995 27.0968 38.3084 26.5901C38.6284 26.0834 38.7884 25.3601 38.7884 24.4201C38.7884 23.4801 38.6284 22.7568 38.3084 22.2501C37.995 21.7434 37.555 21.4901 36.9884 21.4901C36.4217 21.4901 35.9784 21.7434 35.6584 22.2501C35.345 22.7568 35.1884 23.4801 35.1884 24.4201C35.1884 25.3601 35.345 26.0834 35.6584 26.5901C35.9784 27.0968 36.4217 27.3501 36.9884 27.3501ZM43.0345 28.1601C42.5011 28.1601 42.0311 28.0268 41.6245 27.7601C41.2245 27.4868 40.9145 27.0734 40.6945 26.5201C40.4745 25.9668 40.3645 25.2668 40.3645 24.4201C40.3645 23.5668 40.4778 22.8668 40.7045 22.3201C40.9378 21.7668 41.2545 21.3568 41.6545 21.0901C42.0611 20.8168 42.5211 20.6801 43.0345 20.6801C43.5211 20.6801 43.9445 20.7701 44.3045 20.9501C44.6645 21.1301 44.9511 21.3934 45.1645 21.7401C45.3845 22.0868 45.5145 22.5101 45.5545 23.0101L44.7645 23.1301C44.7111 22.6368 44.5411 22.2401 44.2545 21.9401C43.9745 21.6401 43.5678 21.4901 43.0345 21.4901C42.6878 21.4901 42.3778 21.5834 42.1045 21.7701C41.8311 21.9568 41.6145 22.2634 41.4545 22.6901C41.3011 23.1168 41.2245 23.6934 41.2245 24.4201C41.2245 25.1401 41.3045 25.7134 41.4645 26.1401C41.6245 26.5668 41.8411 26.8768 42.1145 27.0701C42.3878 27.2568 42.6945 27.3501 43.0345 27.3501C43.5478 27.3501 43.9511 27.2001 44.2445 26.9001C44.5445 26.6001 44.7278 26.1901 44.7945 25.6701L45.5545 25.7601C45.4945 26.2734 45.3545 26.7101 45.1345 27.0701C44.9211 27.4301 44.6345 27.7034 44.2745 27.8901C43.9211 28.0701 43.5078 28.1601 43.0345 28.1601ZM48.5606 28.0001V21.6501H46.4006V20.8401H51.5606V21.6501H49.4106V28.0001H48.5606ZM54.5767 28.0001V24.7601L52.2267 20.8401H53.1967L54.9767 23.8801H55.0167L56.7567 20.8401H57.7267L55.4167 24.7601V28.0001H54.5767ZM58.7128 28.0001V20.8401H61.1128C61.5128 20.8401 61.8828 20.9201 62.2228 21.0801C62.5628 21.2334 62.8361 21.4701 63.0428 21.7901C63.2494 22.1101 63.3528 22.5168 63.3528 23.0101C63.3528 23.5034 63.2494 23.9101 63.0428 24.2301C62.8361 24.5501 62.5628 24.7901 62.2228 24.9501C61.8828 25.1034 61.5128 25.1801 61.1128 25.1801H59.5628V28.0001H58.7128ZM59.5628 24.3701H61.1328C61.5594 24.3701 61.8928 24.2501 62.1328 24.0101C62.3794 23.7701 62.5028 23.4368 62.5028 23.0101C62.5028 22.5768 62.3794 22.2434 62.1328 22.0101C61.8928 21.7701 61.5594 21.6501 61.1328 21.6501H59.5628V24.3701ZM64.9089 28.0001V20.8401H69.3089V21.6501H65.7589V23.9001H68.9989V24.7101H65.7589V27.1901H69.3089V28.0001H64.9089ZM76.751 28.0001V20.8401H77.591V22.8901L77.551 23.6001H77.591C77.7244 23.3668 77.9377 23.1668 78.231 23.0001C78.5244 22.8268 78.851 22.7401 79.211 22.7401C79.8577 22.7401 80.3344 22.9268 80.641 23.3001C80.9544 23.6668 81.111 24.1401 81.111 24.7201V28.0001H80.281V24.8001C80.281 24.3868 80.1677 24.0701 79.941 23.8501C79.7144 23.6234 79.4077 23.5101 79.021 23.5101C78.741 23.5101 78.491 23.5834 78.271 23.7301C78.0577 23.8768 77.891 24.0734 77.771 24.3201C77.651 24.5668 77.591 24.8368 77.591 25.1301V28.0001H76.751ZM85.9271 28.1501C85.4271 28.1501 85.0205 28.0101 84.7071 27.7301C84.3938 27.4501 84.2371 27.0401 84.2371 26.5001V23.6601H83.0271V22.9001H84.2371V21.5001H85.0771V22.9001H86.9771V23.6601H85.0771V26.4001C85.0771 26.7068 85.1571 26.9434 85.3171 27.1101C85.4838 27.2768 85.7338 27.3601 86.0671 27.3601C86.1938 27.3601 86.3205 27.3434 86.4471 27.3101C86.5738 27.2768 86.6905 27.2334 86.7971 27.1801L87.0271 27.8801C86.8938 27.9534 86.7405 28.0168 86.5671 28.0701C86.4005 28.1234 86.1871 28.1501 85.9271 28.1501ZM88.3632 28.0001V22.9001H89.1532V23.3501H89.1932C89.2866 23.1568 89.4232 23.0068 89.6032 22.9001C89.7899 22.7934 89.9866 22.7401 90.1932 22.7401C90.4732 22.7401 90.6866 22.7968 90.8332 22.9101C90.9799 23.0168 91.0932 23.1568 91.1732 23.3301C91.2599 23.1701 91.4032 23.0334 91.6032 22.9201C91.8099 22.8001 92.0366 22.7401 92.2832 22.7401C92.6766 22.7401 92.9832 22.8601 93.2032 23.1001C93.4299 23.3334 93.5432 23.6868 93.5432 24.1601V28.0001H92.7232V24.2001C92.7232 23.9801 92.6699 23.8101 92.5632 23.6901C92.4566 23.5634 92.2999 23.5001 92.0932 23.5001C91.8866 23.5001 91.7132 23.5734 91.5732 23.7201C91.4399 23.8668 91.3732 24.0568 91.3732 24.2901V28.0001H90.5432V24.2101C90.5432 23.9834 90.4866 23.8101 90.3732 23.6901C90.2666 23.5634 90.1132 23.5001 89.9132 23.5001C89.7132 23.5001 89.5432 23.5768 89.4032 23.7301C89.2632 23.8834 89.1932 24.0768 89.1932 24.3101V28.0001H88.3632ZM94.7493 28.0001V27.2401H96.5293V21.6001H95.0493V20.8401H97.3693V27.2401H99.1493V28.0001H94.7493ZM101.025 26.9701V26.1901L103.985 24.4401V24.4001L101.025 22.6501V21.8701L104.865 24.1101V24.7301L101.025 26.9701Z" fill="#93B3F3"/>
<path d="M20.9201 44.97L17.0801 42.73V42.11L20.9201 39.87V40.65L17.9601 42.4V42.44L20.9201 44.19V44.97ZM47.0606 44.97V44.19L50.0206 42.44V42.4L47.0606 40.65V39.87L50.9006 42.11V42.73L47.0606 44.97ZM20.9201 62.97L17.0801 60.73V60.11L20.9201 57.87V58.65L17.9601 60.4V60.44L20.9201 62.19V62.97ZM47.0606 62.97V62.19L50.0206 60.44V60.4L47.0606 58.65V57.87L50.9006 60.11V60.73L47.0606 62.97Z" fill="#E3E3E3"/>
<path d="M22.7861 46V38.84H23.6261V40.89L23.5861 41.6H23.6261C23.7594 41.3667 23.9728 41.1667 24.2661 41C24.5594 40.8267 24.8861 40.74 25.2461 40.74C25.8928 40.74 26.3694 40.9267 26.6761 41.3C26.9894 41.6667 27.1461 42.14 27.1461 42.72V46H26.3161V42.8C26.3161 42.3867 26.2028 42.07 25.9761 41.85C25.7494 41.6233 25.4428 41.51 25.0561 41.51C24.7761 41.51 24.5261 41.5833 24.3061 41.73C24.0928 41.8767 23.9261 42.0733 23.8061 42.32C23.6861 42.5667 23.6261 42.8367 23.6261 43.13V46H22.7861ZM31.9622 46.15C31.4622 46.15 31.0555 46.01 30.7422 45.73C30.4289 45.45 30.2722 45.04 30.2722 44.5V41.66H29.0622V40.9H30.2722V39.5H31.1122V40.9H33.0122V41.66H31.1122V44.4C31.1122 44.7067 31.1922 44.9433 31.3522 45.11C31.5189 45.2767 31.7689 45.36 32.1022 45.36C32.2289 45.36 32.3555 45.3433 32.4822 45.31C32.6089 45.2767 32.7255 45.2333 32.8322 45.18L33.0622 45.88C32.9289 45.9533 32.7755 46.0167 32.6022 46.07C32.4355 46.1233 32.2222 46.15 31.9622 46.15ZM34.3983 46V40.9H35.1883V41.35H35.2283C35.3216 41.1567 35.4583 41.0067 35.6383 40.9C35.8249 40.7933 36.0216 40.74 36.2283 40.74C36.5083 40.74 36.7216 40.7967 36.8683 40.91C37.0149 41.0167 37.1283 41.1567 37.2083 41.33C37.2949 41.17 37.4383 41.0333 37.6383 40.92C37.8449 40.8 38.0716 40.74 38.3183 40.74C38.7116 40.74 39.0183 40.86 39.2383 41.1C39.4649 41.3333 39.5783 41.6867 39.5783 42.16V46H38.7583V42.2C38.7583 41.98 38.7049 41.81 38.5983 41.69C38.4916 41.5633 38.3349 41.5 38.1283 41.5C37.9216 41.5 37.7483 41.5733 37.6083 41.72C37.4749 41.8667 37.4083 42.0567 37.4083 42.29V46H36.5783V42.21C36.5783 41.9833 36.5216 41.81 36.4083 41.69C36.3016 41.5633 36.1483 41.5 35.9483 41.5C35.7483 41.5 35.5783 41.5767 35.4383 41.73C35.2983 41.8833 35.2283 42.0767 35.2283 42.31V46H34.3983ZM40.7844 46V45.24H42.5644V39.6H41.0844V38.84H43.4044V45.24H45.1844V46H40.7844ZM22.7861 64V56.84H23.6261V58.89L23.5861 59.6H23.6261C23.7594 59.3667 23.9728 59.1667 24.2661 59C24.5594 58.8267 24.8861 58.74 25.2461 58.74C25.8928 58.74 26.3694 58.9267 26.6761 59.3C26.9894 59.6667 27.1461 60.14 27.1461 60.72V64H26.3161V60.8C26.3161 60.3867 26.2028 60.07 25.9761 59.85C25.7494 59.6233 25.4428 59.51 25.0561 59.51C24.7761 59.51 24.5261 59.5833 24.3061 59.73C24.0928 59.8767 23.9261 60.0733 23.8061 60.32C23.6861 60.5667 23.6261 60.8367 23.6261 61.13V64H22.7861ZM31.0722 64.16C30.5655 64.16 30.1255 64.0433 29.7522 63.81C29.3855 63.5767 29.1022 63.2567 28.9022 62.85C28.7089 62.4367 28.6122 61.9733 28.6122 61.46C28.6122 60.9333 28.7122 60.4667 28.9122 60.06C29.1189 59.6467 29.4055 59.3233 29.7722 59.09C30.1455 58.8567 30.5755 58.74 31.0622 58.74C31.7955 58.74 32.3622 58.9567 32.7622 59.39C33.1689 59.8233 33.3722 60.41 33.3722 61.15C33.3722 61.2433 33.3689 61.33 33.3622 61.41C33.3622 61.4833 33.3589 61.55 33.3522 61.61H29.3822V60.92H32.5022C32.4889 60.4867 32.3589 60.14 32.1122 59.88C31.8722 59.62 31.5222 59.49 31.0622 59.49C30.5689 59.49 30.1755 59.66 29.8822 60C29.5889 60.3333 29.4422 60.82 29.4422 61.46C29.4422 62.0733 29.5922 62.55 29.8922 62.89C30.1922 63.2233 30.5955 63.39 31.1022 63.39C31.4955 63.39 31.7989 63.3067 32.0122 63.14C32.2255 62.9667 32.3822 62.7467 32.4822 62.48L33.2222 62.68C33.1022 63.1133 32.8589 63.47 32.4922 63.75C32.1322 64.0233 31.6589 64.16 31.0722 64.16ZM36.8683 64.16C36.4149 64.16 36.0149 64.0467 35.6683 63.82C35.3283 63.5933 35.0616 63.2767 34.8683 62.87C34.6816 62.4567 34.5883 61.9833 34.5883 61.45C34.5883 60.91 34.6849 60.4367 34.8783 60.03C35.0783 59.6233 35.3516 59.3067 35.6983 59.08C36.0449 58.8533 36.4449 58.74 36.8983 58.74C37.2916 58.74 37.6216 58.82 37.8883 58.98C38.1616 59.1333 38.3583 59.3367 38.4783 59.59H38.5183V58.9H39.3183V64H38.5183V63.31H38.4783C38.3516 63.5167 38.1549 63.71 37.8883 63.89C37.6216 64.07 37.2816 64.16 36.8683 64.16ZM36.9683 63.39C37.4216 63.39 37.7916 63.2233 38.0783 62.89C38.3716 62.55 38.5183 62.07 38.5183 61.45C38.5183 60.8233 38.3716 60.3433 38.0783 60.01C37.7916 59.6767 37.4216 59.51 36.9683 59.51C36.5216 59.51 36.1516 59.6767 35.8583 60.01C35.5716 60.3433 35.4283 60.8233 35.4283 61.45C35.4283 62.0767 35.5716 62.5567 35.8583 62.89C36.1516 63.2233 36.5216 63.39 36.9683 63.39ZM42.8644 64.16C42.411 64.16 42.011 64.0467 41.6644 63.82C41.3244 63.5933 41.0577 63.2767 40.8644 62.87C40.6777 62.4567 40.5844 61.9833 40.5844 61.45C40.5844 60.91 40.681 60.4367 40.8744 60.03C41.0744 59.6233 41.3477 59.3067 41.6944 59.08C42.041 58.8533 42.441 58.74 42.8944 58.74C43.2877 58.74 43.6177 58.82 43.8844 58.98C44.1577 59.1333 44.3544 59.3367 44.4744 59.59H44.5144L44.4744 58.89V56.84H45.3144V64H44.5144V63.31H44.4744C44.3477 63.5167 44.151 63.71 43.8844 63.89C43.6177 64.07 43.2777 64.16 42.8644 64.16ZM42.9644 63.39C43.4177 63.39 43.7877 63.2233 44.0744 62.89C44.3677 62.55 44.5144 62.07 44.5144 61.45C44.5144 60.8233 44.3677 60.3433 44.0744 60.01C43.7877 59.6767 43.4177 59.51 42.9644 59.51C42.5177 59.51 42.1477 59.6767 41.8544 60.01C41.5677 60.3433 41.4244 60.8233 41.4244 61.45C41.4244 62.0767 41.5677 62.5567 41.8544 62.89C42.1477 63.2233 42.5177 63.39 42.9644 63.39Z" fill="#E49086"/>
<path d="M20.9201 80.97L17.0801 78.73V78.11L20.9201 75.87V76.65L17.9601 78.4V78.44L20.9201 80.19V80.97ZM25.9662 82.15C25.4662 82.15 25.0595 82.01 24.7462 81.73C24.4329 81.45 24.2762 81.04 24.2762 80.5V77.66H23.0662V76.9H24.2762V75.5H25.1162V76.9H27.0162V77.66H25.1162V80.4C25.1162 80.7067 25.1962 80.9433 25.3562 81.11C25.5229 81.2767 25.7729 81.36 26.1062 81.36C26.2329 81.36 26.3595 81.3433 26.4862 81.31C26.6129 81.2767 26.7295 81.2333 26.8362 81.18L27.0662 81.88C26.9329 81.9533 26.7795 82.0167 26.6062 82.07C26.4395 82.1233 26.2262 82.15 25.9662 82.15ZM28.7923 82V81.24H30.5723V77.66H29.0923V76.9H31.4123V81.24H33.1923V82H28.7923ZM30.9923 75.79C30.7923 75.79 30.6223 75.7233 30.4823 75.59C30.349 75.45 30.2823 75.28 30.2823 75.08C30.2823 74.88 30.349 74.7133 30.4823 74.58C30.6223 74.44 30.7923 74.37 30.9923 74.37C31.1923 74.37 31.359 74.44 31.4923 74.58C31.6323 74.7133 31.7023 74.88 31.7023 75.08C31.7023 75.28 31.6323 75.45 31.4923 75.59C31.359 75.7233 31.1923 75.79 30.9923 75.79ZM37.9584 82.15C37.4584 82.15 37.0517 82.01 36.7384 81.73C36.425 81.45 36.2684 81.04 36.2684 80.5V77.66H35.0584V76.9H36.2684V75.5H37.1084V76.9H39.0084V77.66H37.1084V80.4C37.1084 80.7067 37.1884 80.9433 37.3484 81.11C37.515 81.2767 37.765 81.36 38.0984 81.36C38.225 81.36 38.3517 81.3433 38.4784 81.31C38.605 81.2767 38.7217 81.2333 38.8284 81.18L39.0584 81.88C38.925 81.9533 38.7717 82.0167 38.5984 82.07C38.4317 82.1233 38.2184 82.15 37.9584 82.15ZM40.7845 82V81.24H42.5645V75.6H41.0845V74.84H43.4045V81.24H45.1845V82H40.7845ZM49.0606 82.16C48.5539 82.16 48.1139 82.0433 47.7406 81.81C47.3739 81.5767 47.0906 81.2567 46.8906 80.85C46.6972 80.4367 46.6006 79.9733 46.6006 79.46C46.6006 78.9333 46.7006 78.4667 46.9006 78.06C47.1072 77.6467 47.3939 77.3233 47.7606 77.09C48.1339 76.8567 48.5639 76.74 49.0506 76.74C49.7839 76.74 50.3506 76.9567 50.7506 77.39C51.1572 77.8233 51.3606 78.41 51.3606 79.15C51.3606 79.2433 51.3572 79.33 51.3506 79.41C51.3506 79.4833 51.3472 79.55 51.3406 79.61H47.3706V78.92H50.4906C50.4772 78.4867 50.3472 78.14 50.1006 77.88C49.8606 77.62 49.5106 77.49 49.0506 77.49C48.5572 77.49 48.1639 77.66 47.8706 78C47.5772 78.3333 47.4306 78.82 47.4306 79.46C47.4306 80.0733 47.5806 80.55 47.8806 80.89C48.1806 81.2233 48.5839 81.39 49.0906 81.39C49.4839 81.39 49.7872 81.3067 50.0006 81.14C50.2139 80.9667 50.3706 80.7467 50.4706 80.48L51.2106 80.68C51.0906 81.1133 50.8472 81.47 50.4806 81.75C50.1206 82.0233 49.6472 82.16 49.0606 82.16ZM53.0567 80.97V80.19L56.0167 78.44V78.4L53.0567 76.65V75.87L56.8967 78.11V78.73L53.0567 80.97ZM60.5528 82V74.84H61.4028V82H60.5528ZM58.8328 82V81.19H63.1228V82H58.8328ZM58.8928 75.65V74.84H63.0628V75.65H58.8928ZM64.3789 82V76.9H65.1689V77.35H65.2089C65.3022 77.1567 65.4389 77.0067 65.6189 76.9C65.8055 76.7933 66.0022 76.74 66.2089 76.74C66.4889 76.74 66.7022 76.7967 66.8489 76.91C66.9955 77.0167 67.1089 77.1567 67.1889 77.33C67.2755 77.17 67.4189 77.0333 67.6189 76.92C67.8255 76.8 68.0522 76.74 68.2989 76.74C68.6922 76.74 68.9989 76.86 69.2189 77.1C69.4455 77.3333 69.5589 77.6867 69.5589 78.16V82H68.7389V78.2C68.7389 77.98 68.6855 77.81 68.5789 77.69C68.4722 77.5633 68.3155 77.5 68.1089 77.5C67.9022 77.5 67.7289 77.5733 67.5889 77.72C67.4555 77.8667 67.3889 78.0567 67.3889 78.29V82H66.5589V78.21C66.5589 77.9833 66.5022 77.81 66.3889 77.69C66.2822 77.5633 66.1289 77.5 65.9289 77.5C65.7289 77.5 65.5589 77.5767 65.4189 77.73C65.2789 77.8833 65.2089 78.0767 65.2089 78.31V82H64.3789ZM72.8449 82.16C72.3916 82.16 71.9916 82.0467 71.6449 81.82C71.3049 81.5933 71.0383 81.2767 70.8449 80.87C70.6583 80.4567 70.5649 79.9833 70.5649 79.45C70.5649 78.91 70.6616 78.4367 70.8549 78.03C71.0549 77.6233 71.3283 77.3067 71.6749 77.08C72.0216 76.8533 72.4216 76.74 72.8749 76.74C73.2683 76.74 73.5983 76.82 73.8649 76.98C74.1383 77.1333 74.3349 77.3367 74.4549 77.59H74.4949V76.9H75.2949V82H74.4949V81.31H74.4549C74.3283 81.5167 74.1316 81.71 73.8649 81.89C73.5983 82.07 73.2583 82.16 72.8449 82.16ZM72.9449 81.39C73.3983 81.39 73.7683 81.2233 74.0549 80.89C74.3483 80.55 74.4949 80.07 74.4949 79.45C74.4949 78.8233 74.3483 78.3433 74.0549 78.01C73.7683 77.6767 73.3983 77.51 72.9449 77.51C72.4983 77.51 72.1283 77.6767 71.8349 78.01C71.5483 78.3433 71.4049 78.8233 71.4049 79.45C71.4049 80.0767 71.5483 80.5567 71.8349 80.89C72.1283 81.2233 72.4983 81.39 72.9449 81.39ZM78.901 84.32C78.501 84.32 78.1477 84.2467 77.841 84.1C77.5344 83.9533 77.2844 83.76 77.091 83.52C76.9044 83.28 76.781 83.02 76.721 82.74L77.511 82.54C77.5977 82.8267 77.7577 83.0667 77.991 83.26C78.2244 83.46 78.5277 83.56 78.901 83.56C79.4344 83.56 79.831 83.4033 80.091 83.09C80.3577 82.7767 80.491 82.35 80.491 81.81V81.06H80.451C80.2844 81.3467 80.061 81.57 79.781 81.73C79.501 81.8833 79.1544 81.96 78.741 81.96C78.341 81.96 77.9744 81.86 77.641 81.66C77.3077 81.46 77.0377 81.1667 76.831 80.78C76.631 80.3867 76.531 79.91 76.531 79.35C76.531 78.7833 76.631 78.3067 76.831 77.92C77.0377 77.5333 77.311 77.24 77.651 77.04C77.9977 76.84 78.381 76.74 78.801 76.74C79.161 76.74 79.4877 76.8167 79.781 76.97C80.0744 77.1167 80.2977 77.32 80.451 77.58H80.491V76.9H81.281V81.82C81.281 82.38 81.1777 82.8433 80.971 83.21C80.7644 83.5833 80.481 83.86 80.121 84.04C79.761 84.2267 79.3544 84.32 78.901 84.32ZM78.931 81.19C79.211 81.19 79.4677 81.1233 79.701 80.99C79.941 80.8567 80.131 80.6533 80.271 80.38C80.4177 80.1067 80.491 79.7633 80.491 79.35C80.491 78.9367 80.4177 78.5933 80.271 78.32C80.131 78.0467 79.9444 77.8433 79.711 77.71C79.4777 77.5767 79.2177 77.51 78.931 77.51C78.651 77.51 78.391 77.5767 78.151 77.71C77.9177 77.8433 77.7277 78.0467 77.581 78.32C77.4344 78.5933 77.361 78.9367 77.361 79.35C77.361 79.7633 77.4344 80.1067 77.581 80.38C77.7277 80.6533 77.9177 80.8567 78.151 80.99C78.391 81.1233 78.651 81.19 78.931 81.19ZM85.0371 82.16C84.5305 82.16 84.0905 82.0433 83.7171 81.81C83.3505 81.5767 83.0671 81.2567 82.8671 80.85C82.6738 80.4367 82.5771 79.9733 82.5771 79.46C82.5771 78.9333 82.6771 78.4667 82.8771 78.06C83.0838 77.6467 83.3705 77.3233 83.7371 77.09C84.1105 76.8567 84.5405 76.74 85.0271 76.74C85.7605 76.74 86.3271 76.9567 86.7271 77.39C87.1338 77.8233 87.3371 78.41 87.3371 79.15C87.3371 79.2433 87.3338 79.33 87.3271 79.41C87.3271 79.4833 87.3238 79.55 87.3171 79.61H83.3471V78.92H86.4671C86.4538 78.4867 86.3238 78.14 86.0771 77.88C85.8371 77.62 85.4871 77.49 85.0271 77.49C84.5338 77.49 84.1405 77.66 83.8471 78C83.5538 78.3333 83.4071 78.82 83.4071 79.46C83.4071 80.0733 83.5571 80.55 83.8571 80.89C84.1571 81.2233 84.5605 81.39 85.0671 81.39C85.4605 81.39 85.7638 81.3067 85.9771 81.14C86.1905 80.9667 86.3471 80.7467 86.4471 80.48L87.1871 80.68C87.0671 81.1133 86.8238 81.47 86.4571 81.75C86.0971 82.0233 85.6238 82.16 85.0371 82.16ZM96.9893 82.16C96.3227 82.16 95.756 81.9733 95.2893 81.6C94.8227 81.2267 94.5327 80.6967 94.4193 80.01L95.2793 79.82C95.3527 80.2667 95.5327 80.6333 95.8193 80.92C96.106 81.2067 96.5027 81.35 97.0093 81.35C97.4627 81.35 97.8327 81.2367 98.1193 81.01C98.4127 80.7833 98.5593 80.4767 98.5593 80.09C98.5593 79.7033 98.436 79.4167 98.1893 79.23C97.9427 79.0367 97.5627 78.8667 97.0493 78.72L96.4693 78.55C96.1427 78.45 95.846 78.32 95.5793 78.16C95.3127 77.9933 95.0993 77.7833 94.9393 77.53C94.7793 77.27 94.6993 76.95 94.6993 76.57C94.6993 76.23 94.7893 75.9167 94.9693 75.63C95.1493 75.3433 95.4027 75.1133 95.7293 74.94C96.0627 74.7667 96.456 74.68 96.9093 74.68C97.4027 74.68 97.8127 74.7667 98.1393 74.94C98.4727 75.1133 98.7293 75.3433 98.9093 75.63C99.0893 75.91 99.1927 76.2167 99.2193 76.55L98.4193 76.67C98.3527 76.3033 98.1993 76.0167 97.9593 75.81C97.7193 75.5967 97.3727 75.49 96.9193 75.49C96.526 75.49 96.1993 75.5967 95.9393 75.81C95.6793 76.0167 95.5493 76.2667 95.5493 76.56C95.5493 76.86 95.666 77.1033 95.8993 77.29C96.1393 77.4767 96.4893 77.6467 96.9493 77.8L97.4993 77.97C97.846 78.0767 98.1627 78.21 98.4493 78.37C98.736 78.5233 98.966 78.7367 99.1393 79.01C99.3193 79.2833 99.4093 79.6433 99.4093 80.09C99.4093 80.53 99.2993 80.9067 99.0793 81.22C98.866 81.5267 98.576 81.76 98.2093 81.92C97.8493 82.08 97.4427 82.16 96.9893 82.16ZM100.745 82V81.24H102.525V75.6H101.045V74.84H103.365V81.24H105.145V82H100.745ZM106.741 82V81.24H108.521V77.66H107.041V76.9H109.361V81.24H111.141V82H106.741ZM108.941 75.79C108.741 75.79 108.571 75.7233 108.431 75.59C108.298 75.45 108.231 75.28 108.231 75.08C108.231 74.88 108.298 74.7133 108.431 74.58C108.571 74.44 108.741 74.37 108.941 74.37C109.141 74.37 109.308 74.44 109.441 74.58C109.581 74.7133 109.651 74.88 109.651 75.08C109.651 75.28 109.581 75.45 109.441 75.59C109.308 75.7233 109.141 75.79 108.941 75.79ZM114.818 82.16C114.364 82.16 113.964 82.0467 113.618 81.82C113.278 81.5933 113.011 81.2767 112.818 80.87C112.631 80.4567 112.538 79.9833 112.538 79.45C112.538 78.91 112.634 78.4367 112.828 78.03C113.028 77.6233 113.301 77.3067 113.648 77.08C113.994 76.8533 114.394 76.74 114.848 76.74C115.241 76.74 115.571 76.82 115.838 76.98C116.111 77.1333 116.308 77.3367 116.428 77.59H116.468L116.428 76.89V74.84H117.268V82H116.468V81.31H116.428C116.301 81.5167 116.104 81.71 115.838 81.89C115.571 82.07 115.231 82.16 114.818 82.16ZM114.918 81.39C115.371 81.39 115.741 81.2233 116.028 80.89C116.321 80.55 116.468 80.07 116.468 79.45C116.468 78.8233 116.321 78.3433 116.028 78.01C115.741 77.6767 115.371 77.51 114.918 77.51C114.471 77.51 114.101 77.6767 113.808 78.01C113.521 78.3433 113.378 78.8233 113.378 79.45C113.378 80.0767 113.521 80.5567 113.808 80.89C114.101 81.2233 114.471 81.39 114.918 81.39ZM121.014 82.16C120.507 82.16 120.067 82.0433 119.694 81.81C119.327 81.5767 119.044 81.2567 118.844 80.85C118.65 80.4367 118.554 79.9733 118.554 79.46C118.554 78.9333 118.654 78.4667 118.854 78.06C119.06 77.6467 119.347 77.3233 119.714 77.09C120.087 76.8567 120.517 76.74 121.004 76.74C121.737 76.74 122.304 76.9567 122.704 77.39C123.11 77.8233 123.314 78.41 123.314 79.15C123.314 79.2433 123.31 79.33 123.304 79.41C123.304 79.4833 123.3 79.55 123.294 79.61H119.324V78.92H122.444C122.43 78.4867 122.3 78.14 122.054 77.88C121.814 77.62 121.464 77.49 121.004 77.49C120.51 77.49 120.117 77.66 119.824 78C119.53 78.3333 119.384 78.82 119.384 79.46C119.384 80.0733 119.534 80.55 119.834 80.89C120.134 81.2233 120.537 81.39 121.044 81.39C121.437 81.39 121.74 81.3067 121.954 81.14C122.167 80.9667 122.324 80.7467 122.424 80.48L123.164 80.68C123.044 81.1133 122.8 81.47 122.434 81.75C122.074 82.0233 121.6 82.16 121.014 82.16ZM125.31 82V76.9H126.11V77.8H126.15C126.276 77.4733 126.493 77.2167 126.8 77.03C127.106 76.8367 127.46 76.74 127.86 76.74C128.073 76.74 128.27 76.7567 128.45 76.79C128.636 76.8167 128.78 76.8633 128.88 76.93V77.85C128.733 77.7567 128.56 77.69 128.36 77.65C128.16 77.6033 127.94 77.58 127.7 77.58C127.36 77.58 127.073 77.6633 126.84 77.83C126.613 77.9967 126.44 78.2167 126.32 78.49C126.206 78.7633 126.15 79.06 126.15 79.38V82H125.31ZM134.846 80.97L131.006 78.73V78.11L134.846 75.87V76.65L131.886 78.4V78.44L134.846 80.19V80.97ZM136.822 82L140.242 74.84H141.022L137.602 82H136.822ZM145.888 82.15C145.388 82.15 144.981 82.01 144.668 81.73C144.355 81.45 144.198 81.04 144.198 80.5V77.66H142.988V76.9H144.198V75.5H145.038V76.9H146.938V77.66H145.038V80.4C145.038 80.7067 145.118 80.9433 145.278 81.11C145.445 81.2767 145.695 81.36 146.028 81.36C146.155 81.36 146.281 81.3433 146.408 81.31C146.535 81.2767 146.651 81.2333 146.758 81.18L146.988 81.88C146.855 81.9533 146.701 82.0167 146.528 82.07C146.361 82.1233 146.148 82.15 145.888 82.15ZM148.714 82V81.24H150.494V77.66H149.014V76.9H151.334V81.24H153.114V82H148.714ZM150.914 75.79C150.714 75.79 150.544 75.7233 150.404 75.59C150.271 75.45 150.204 75.28 150.204 75.08C150.204 74.88 150.271 74.7133 150.404 74.58C150.544 74.44 150.714 74.37 150.914 74.37C151.114 74.37 151.281 74.44 151.414 74.58C151.554 74.7133 151.624 74.88 151.624 75.08C151.624 75.28 151.554 75.45 151.414 75.59C151.281 75.7233 151.114 75.79 150.914 75.79ZM157.88 82.15C157.38 82.15 156.973 82.01 156.66 81.73C156.347 81.45 156.19 81.04 156.19 80.5V77.66H154.98V76.9H156.19V75.5H157.03V76.9H158.93V77.66H157.03V80.4C157.03 80.7067 157.11 80.9433 157.27 81.11C157.437 81.2767 157.687 81.36 158.02 81.36C158.147 81.36 158.273 81.3433 158.4 81.31C158.527 81.2767 158.643 81.2333 158.75 81.18L158.98 81.88C158.847 81.9533 158.693 82.0167 158.52 82.07C158.353 82.1233 158.14 82.15 157.88 82.15ZM160.706 82V81.24H162.486V75.6H161.006V74.84H163.326V81.24H165.106V82H160.706ZM168.982 82.16C168.476 82.16 168.036 82.0433 167.662 81.81C167.296 81.5767 167.012 81.2567 166.812 80.85C166.619 80.4367 166.522 79.9733 166.522 79.46C166.522 78.9333 166.622 78.4667 166.822 78.06C167.029 77.6467 167.316 77.3233 167.682 77.09C168.056 76.8567 168.486 76.74 168.972 76.74C169.706 76.74 170.272 76.9567 170.672 77.39C171.079 77.8233 171.282 78.41 171.282 79.15C171.282 79.2433 171.279 79.33 171.272 79.41C171.272 79.4833 171.269 79.55 171.262 79.61H167.292V78.92H170.412C170.399 78.4867 170.269 78.14 170.022 77.88C169.782 77.62 169.432 77.49 168.972 77.49C168.479 77.49 168.086 77.66 167.792 78C167.499 78.3333 167.352 78.82 167.352 79.46C167.352 80.0733 167.502 80.55 167.802 80.89C168.102 81.2233 168.506 81.39 169.012 81.39C169.406 81.39 169.709 81.3067 169.922 81.14C170.136 80.9667 170.292 80.7467 170.392 80.48L171.132 80.68C171.012 81.1133 170.769 81.47 170.402 81.75C170.042 82.0233 169.569 82.16 168.982 82.16ZM172.978 80.97V80.19L175.938 78.44V78.4L172.978 76.65V75.87L176.818 78.11V78.73L172.978 80.97Z" fill="#999999"/>
<path d="M20.9201 98.97L17.0801 96.73V96.11L20.9201 93.87V94.65L17.9601 96.4V96.44L20.9201 98.19V98.97ZM22.7962 100V99.24H24.5762V93.6H23.0962V92.84H25.4162V99.24H27.1962V100H22.7962ZM28.7923 100V99.24H30.5723V95.66H29.0923V94.9H31.4123V99.24H33.1923V100H28.7923ZM30.9923 93.79C30.7923 93.79 30.6223 93.7233 30.4823 93.59C30.349 93.45 30.2823 93.28 30.2823 93.08C30.2823 92.88 30.349 92.7133 30.4823 92.58C30.6223 92.44 30.7923 92.37 30.9923 92.37C31.1923 92.37 31.359 92.44 31.4923 92.58C31.6323 92.7133 31.7023 92.88 31.7023 93.08C31.7023 93.28 31.6323 93.45 31.4923 93.59C31.359 93.7233 31.1923 93.79 30.9923 93.79ZM34.9284 100V94.9H35.7284V95.56H35.7684C35.8884 95.3267 36.0884 95.1333 36.3684 94.98C36.655 94.82 36.9717 94.74 37.3184 94.74C37.8917 94.74 38.3384 94.91 38.6584 95.25C38.9784 95.5833 39.1384 96.04 39.1384 96.62V100H38.2984V96.73C38.2984 96.29 38.1817 95.9767 37.9484 95.79C37.715 95.6033 37.435 95.51 37.1084 95.51C36.8417 95.51 36.605 95.5767 36.3984 95.71C36.1984 95.8367 36.0417 96.01 35.9284 96.23C35.8217 96.45 35.7684 96.69 35.7684 96.95V100H34.9284ZM40.7945 100V92.84H41.6345V97.21L44.0345 94.9H45.1145V94.94L41.6345 98.25V100H40.7945ZM44.2445 100L42.3745 97.34L42.9945 96.77L45.2145 99.96V100H44.2445ZM53.3567 100V94.9H54.1567V95.8H54.1967C54.3233 95.4733 54.54 95.2167 54.8467 95.03C55.1533 94.8367 55.5067 94.74 55.9067 94.74C56.12 94.74 56.3167 94.7567 56.4967 94.79C56.6833 94.8167 56.8267 94.8633 56.9267 94.93V95.85C56.78 95.7567 56.6067 95.69 56.4067 95.65C56.2067 95.6033 55.9867 95.58 55.7467 95.58C55.4067 95.58 55.12 95.6633 54.8867 95.83C54.66 95.9967 54.4867 96.2167 54.3667 96.49C54.2533 96.7633 54.1967 97.06 54.1967 97.38V100H53.3567ZM61.0528 100.16C60.5461 100.16 60.1061 100.043 59.7328 99.81C59.3661 99.5767 59.0828 99.2567 58.8828 98.85C58.6894 98.4367 58.5928 97.9733 58.5928 97.46C58.5928 96.9333 58.6928 96.4667 58.8928 96.06C59.0994 95.6467 59.3861 95.3233 59.7528 95.09C60.1261 94.8567 60.5561 94.74 61.0428 94.74C61.7761 94.74 62.3428 94.9567 62.7428 95.39C63.1494 95.8233 63.3528 96.41 63.3528 97.15C63.3528 97.2433 63.3494 97.33 63.3428 97.41C63.3428 97.4833 63.3394 97.55 63.3328 97.61H59.3628V96.92H62.4828C62.4694 96.4867 62.3394 96.14 62.0928 95.88C61.8528 95.62 61.5028 95.49 61.0428 95.49C60.5494 95.49 60.1561 95.66 59.8628 96C59.5694 96.3333 59.4228 96.82 59.4228 97.46C59.4228 98.0733 59.5728 98.55 59.8728 98.89C60.1728 99.2233 60.5761 99.39 61.0828 99.39C61.4761 99.39 61.7794 99.3067 61.9928 99.14C62.2061 98.9667 62.3628 98.7467 62.4628 98.48L63.2028 98.68C63.0828 99.1133 62.8394 99.47 62.4728 99.75C62.1128 100.023 61.6394 100.16 61.0528 100.16ZM64.7689 100V99.24H66.5489V93.6H65.0689V92.84H67.3889V99.24H69.1689V100H64.7689ZM70.8349 96.11V95.41H75.0949V96.11H70.8349ZM70.8349 98.21V97.51H75.0949V98.21H70.8349ZM77.561 95.75V92.84H78.331V95.75H77.561ZM79.591 95.75V92.84H80.361V95.75H79.591ZM84.9871 100.16C84.3805 100.16 83.8971 100.023 83.5371 99.75C83.1838 99.4767 82.9438 99.0967 82.8171 98.61L83.6371 98.44C83.7038 98.7267 83.8538 98.96 84.0871 99.14C84.3205 99.32 84.6205 99.41 84.9871 99.41C85.3205 99.41 85.6105 99.34 85.8571 99.2C86.1038 99.06 86.2271 98.8667 86.2271 98.62C86.2271 98.38 86.1371 98.1967 85.9571 98.07C85.7771 97.9367 85.5005 97.8367 85.1271 97.77L84.4771 97.65C84.0305 97.57 83.6705 97.41 83.3971 97.17C83.1238 96.93 82.9871 96.6033 82.9871 96.19C82.9871 95.91 83.0705 95.66 83.2371 95.44C83.4105 95.22 83.6438 95.05 83.9371 94.93C84.2371 94.8033 84.5705 94.74 84.9371 94.74C85.4305 94.74 85.8571 94.8433 86.2171 95.05C86.5838 95.25 86.8138 95.6033 86.9071 96.11L86.1371 96.28C86.0571 95.98 85.9105 95.7733 85.6971 95.66C85.4838 95.54 85.2305 95.48 84.9371 95.48C84.6505 95.48 84.3938 95.5433 84.1671 95.67C83.9405 95.7967 83.8271 95.9667 83.8271 96.18C83.8271 96.4 83.9171 96.57 84.0971 96.69C84.2838 96.8033 84.5338 96.8867 84.8471 96.94L85.5971 97.07C86.0705 97.15 86.4338 97.31 86.6871 97.55C86.9405 97.7833 87.0671 98.1267 87.0671 98.58C87.0671 98.8933 86.9738 99.17 86.7871 99.41C86.6005 99.6433 86.3505 99.8267 86.0371 99.96C85.7238 100.093 85.3738 100.16 84.9871 100.16ZM91.9232 100.15C91.4232 100.15 91.0166 100.01 90.7032 99.73C90.3899 99.45 90.2332 99.04 90.2332 98.5V95.66H89.0232V94.9H90.2332V93.5H91.0732V94.9H92.9732V95.66H91.0732V98.4C91.0732 98.7067 91.1532 98.9433 91.3132 99.11C91.4799 99.2767 91.7299 99.36 92.0632 99.36C92.1899 99.36 92.3166 99.3433 92.4432 99.31C92.5699 99.2767 92.6866 99.2333 92.7932 99.18L93.0232 99.88C92.8899 99.9533 92.7366 100.017 92.5632 100.07C92.3966 100.123 92.1832 100.15 91.9232 100.15ZM95.3893 102.24C95.1893 102.24 95.0193 102.227 94.8793 102.2C94.746 102.18 94.6227 102.15 94.5093 102.11V101.33C94.5893 101.357 94.6993 101.39 94.8393 101.43C94.986 101.47 95.1493 101.49 95.3293 101.49C95.5627 101.49 95.746 101.417 95.8793 101.27C96.0193 101.13 96.1493 100.907 96.2693 100.6L96.8393 99.16L98.6193 94.9H99.5293L96.9793 100.93C96.8593 101.217 96.7293 101.457 96.5893 101.65C96.456 101.843 96.2927 101.99 96.0993 102.09C95.9127 102.19 95.676 102.24 95.3893 102.24ZM96.5693 100.1L94.4693 94.9H95.3893L96.9293 98.89H96.9893L96.5693 100.1ZM100.745 100V99.24H102.525V93.6H101.045V92.84H103.365V99.24H105.145V100H100.745ZM109.021 100.16C108.515 100.16 108.075 100.043 107.701 99.81C107.335 99.5767 107.051 99.2567 106.851 98.85C106.658 98.4367 106.561 97.9733 106.561 97.46C106.561 96.9333 106.661 96.4667 106.861 96.06C107.068 95.6467 107.355 95.3233 107.721 95.09C108.095 94.8567 108.525 94.74 109.011 94.74C109.745 94.74 110.311 94.9567 110.711 95.39C111.118 95.8233 111.321 96.41 111.321 97.15C111.321 97.2433 111.318 97.33 111.311 97.41C111.311 97.4833 111.308 97.55 111.301 97.61H107.331V96.92H110.451C110.438 96.4867 110.308 96.14 110.061 95.88C109.821 95.62 109.471 95.49 109.011 95.49C108.518 95.49 108.125 95.66 107.831 96C107.538 96.3333 107.391 96.82 107.391 97.46C107.391 98.0733 107.541 98.55 107.841 98.89C108.141 99.2233 108.545 99.39 109.051 99.39C109.445 99.39 109.748 99.3067 109.961 99.14C110.175 98.9667 110.331 98.7467 110.431 98.48L111.171 98.68C111.051 99.1133 110.808 99.47 110.441 99.75C110.081 100.023 109.608 100.16 109.021 100.16ZM114.968 100.16C114.361 100.16 113.878 100.023 113.518 99.75C113.164 99.4767 112.924 99.0967 112.798 98.61L113.618 98.44C113.684 98.7267 113.834 98.96 114.068 99.14C114.301 99.32 114.601 99.41 114.968 99.41C115.301 99.41 115.591 99.34 115.838 99.2C116.084 99.06 116.208 98.8667 116.208 98.62C116.208 98.38 116.118 98.1967 115.938 98.07C115.758 97.9367 115.481 97.8367 115.108 97.77L114.458 97.65C114.011 97.57 113.651 97.41 113.378 97.17C113.104 96.93 112.968 96.6033 112.968 96.19C112.968 95.91 113.051 95.66 113.218 95.44C113.391 95.22 113.624 95.05 113.918 94.93C114.218 94.8033 114.551 94.74 114.918 94.74C115.411 94.74 115.838 94.8433 116.198 95.05C116.564 95.25 116.794 95.6033 116.888 96.11L116.118 96.28C116.038 95.98 115.891 95.7733 115.678 95.66C115.464 95.54 115.211 95.48 114.918 95.48C114.631 95.48 114.374 95.5433 114.148 95.67C113.921 95.7967 113.808 95.9667 113.808 96.18C113.808 96.4 113.898 96.57 114.078 96.69C114.264 96.8033 114.514 96.8867 114.828 96.94L115.578 97.07C116.051 97.15 116.414 97.31 116.668 97.55C116.921 97.7833 117.048 98.1267 117.048 98.58C117.048 98.8933 116.954 99.17 116.768 99.41C116.581 99.6433 116.331 99.8267 116.018 99.96C115.704 100.093 115.354 100.16 114.968 100.16ZM118.724 100V92.84H119.564V94.89L119.524 95.6H119.564C119.697 95.3667 119.91 95.1667 120.204 95C120.497 94.8267 120.824 94.74 121.184 94.74C121.83 94.74 122.307 94.9267 122.614 95.3C122.927 95.6667 123.084 96.14 123.084 96.72V100H122.254V96.8C122.254 96.3867 122.14 96.07 121.914 95.85C121.687 95.6233 121.38 95.51 120.994 95.51C120.714 95.51 120.464 95.5833 120.244 95.73C120.03 95.8767 119.864 96.0733 119.744 96.32C119.624 96.5667 119.564 96.8367 119.564 97.13V100H118.724ZM127.01 100.16C126.503 100.16 126.063 100.043 125.69 99.81C125.323 99.5767 125.04 99.2567 124.84 98.85C124.646 98.4367 124.55 97.9733 124.55 97.46C124.55 96.9333 124.65 96.4667 124.85 96.06C125.056 95.6467 125.343 95.3233 125.71 95.09C126.083 94.8567 126.513 94.74 127 94.74C127.733 94.74 128.3 94.9567 128.7 95.39C129.106 95.8233 129.31 96.41 129.31 97.15C129.31 97.2433 129.306 97.33 129.3 97.41C129.3 97.4833 129.296 97.55 129.29 97.61H125.32V96.92H128.44C128.426 96.4867 128.296 96.14 128.05 95.88C127.81 95.62 127.46 95.49 127 95.49C126.506 95.49 126.113 95.66 125.82 96C125.526 96.3333 125.38 96.82 125.38 97.46C125.38 98.0733 125.53 98.55 125.83 98.89C126.13 99.2233 126.533 99.39 127.04 99.39C127.433 99.39 127.736 99.3067 127.95 99.14C128.163 98.9667 128.32 98.7467 128.42 98.48L129.16 98.68C129.04 99.1133 128.796 99.47 128.43 99.75C128.07 100.023 127.596 100.16 127.01 100.16ZM133.006 100.16C132.499 100.16 132.059 100.043 131.686 99.81C131.319 99.5767 131.036 99.2567 130.836 98.85C130.642 98.4367 130.546 97.9733 130.546 97.46C130.546 96.9333 130.646 96.4667 130.846 96.06C131.052 95.6467 131.339 95.3233 131.706 95.09C132.079 94.8567 132.509 94.74 132.996 94.74C133.729 94.74 134.296 94.9567 134.696 95.39C135.102 95.8233 135.306 96.41 135.306 97.15C135.306 97.2433 135.302 97.33 135.296 97.41C135.296 97.4833 135.292 97.55 135.286 97.61H131.316V96.92H134.436C134.422 96.4867 134.292 96.14 134.046 95.88C133.806 95.62 133.456 95.49 132.996 95.49C132.502 95.49 132.109 95.66 131.816 96C131.522 96.3333 131.376 96.82 131.376 97.46C131.376 98.0733 131.526 98.55 131.826 98.89C132.126 99.2233 132.529 99.39 133.036 99.39C133.429 99.39 133.732 99.3067 133.946 99.14C134.159 98.9667 134.316 98.7467 134.416 98.48L135.156 98.68C135.036 99.1133 134.792 99.47 134.426 99.75C134.066 100.023 133.592 100.16 133.006 100.16ZM139.892 100.15C139.392 100.15 138.985 100.01 138.672 99.73C138.359 99.45 138.202 99.04 138.202 98.5V95.66H136.992V94.9H138.202V93.5H139.042V94.9H140.942V95.66H139.042V98.4C139.042 98.7067 139.122 98.9433 139.282 99.11C139.449 99.2767 139.699 99.36 140.032 99.36C140.159 99.36 140.285 99.3433 140.412 99.31C140.539 99.2767 140.655 99.2333 140.762 99.18L140.992 99.88C140.859 99.9533 140.705 100.017 140.532 100.07C140.365 100.123 140.152 100.15 139.892 100.15ZM143.518 95.75V92.84H144.288V95.75H143.518ZM145.548 95.75V92.84H146.318V95.75H145.548Z" fill="#606060"/>
<path d="M16.79 118V110.84H17.63V112.89L17.59 113.6H17.63C17.7633 113.367 17.9767 113.167 18.27 113C18.5633 112.827 18.89 112.74 19.25 112.74C19.8967 112.74 20.3733 112.927 20.68 113.3C20.9933 113.667 21.15 114.14 21.15 114.72V118H20.32V114.8C20.32 114.387 20.2067 114.07 19.98 113.85C19.7533 113.623 19.4467 113.51 19.06 113.51C18.78 113.51 18.53 113.583 18.31 113.73C18.0967 113.877 17.93 114.073 17.81 114.32C17.69 114.567 17.63 114.837 17.63 115.13V118H16.79ZM23.3761 118V112.9H24.1761V113.8H24.2161C24.3428 113.473 24.5594 113.217 24.8661 113.03C25.1728 112.837 25.5261 112.74 25.9261 112.74C26.1394 112.74 26.3361 112.757 26.5161 112.79C26.7028 112.817 26.8461 112.863 26.9461 112.93V113.85C26.7994 113.757 26.6261 113.69 26.4261 113.65C26.2261 113.603 26.0061 113.58 25.7661 113.58C25.4261 113.58 25.1394 113.663 24.9061 113.83C24.6794 113.997 24.5061 114.217 24.3861 114.49C24.2728 114.763 24.2161 115.06 24.2161 115.38V118H23.3761ZM31.0722 118.16C30.5655 118.16 30.1255 118.043 29.7522 117.81C29.3855 117.577 29.1022 117.257 28.9022 116.85C28.7089 116.437 28.6122 115.973 28.6122 115.46C28.6122 114.933 28.7122 114.467 28.9122 114.06C29.1189 113.647 29.4055 113.323 29.7722 113.09C30.1455 112.857 30.5755 112.74 31.0622 112.74C31.7955 112.74 32.3622 112.957 32.7622 113.39C33.1689 113.823 33.3722 114.41 33.3722 115.15C33.3722 115.243 33.3689 115.33 33.3622 115.41C33.3622 115.483 33.3589 115.55 33.3522 115.61H29.3822V114.92H32.5022C32.4889 114.487 32.3589 114.14 32.1122 113.88C31.8722 113.62 31.5222 113.49 31.0622 113.49C30.5689 113.49 30.1755 113.66 29.8822 114C29.5889 114.333 29.4422 114.82 29.4422 115.46C29.4422 116.073 29.5922 116.55 29.8922 116.89C30.1922 117.223 30.5955 117.39 31.1022 117.39C31.4955 117.39 31.7989 117.307 32.0122 117.14C32.2255 116.967 32.3822 116.747 32.4822 116.48L33.2222 116.68C33.1022 117.113 32.8589 117.47 32.4922 117.75C32.1322 118.023 31.6589 118.16 31.0722 118.16ZM36.2083 118V113.66H34.8483V112.9H36.2083V112.43C36.2083 111.817 36.3816 111.35 36.7283 111.03C37.0749 110.703 37.5116 110.54 38.0383 110.54C38.3649 110.54 38.6383 110.58 38.8583 110.66C39.0849 110.733 39.2716 110.83 39.4183 110.95L39.0583 111.64C38.8983 111.527 38.7416 111.443 38.5883 111.39C38.4349 111.337 38.2683 111.31 38.0883 111.31C37.7616 111.31 37.5049 111.403 37.3183 111.59C37.1316 111.777 37.0383 112.08 37.0383 112.5V112.9H38.8483V113.66H37.0383V118H36.2083ZM40.8544 114.11V113.41H45.1144V114.11H40.8544ZM40.8544 116.21V115.51H45.1144V116.21H40.8544ZM47.5805 113.75V110.84H48.3505V113.75H47.5805ZM49.6105 113.75V110.84H50.3805V113.75H49.6105ZM55.0066 118.16C54.3999 118.16 53.9166 118.023 53.5566 117.75C53.2032 117.477 52.9632 117.097 52.8366 116.61L53.6566 116.44C53.7232 116.727 53.8732 116.96 54.1066 117.14C54.3399 117.32 54.6399 117.41 55.0066 117.41C55.3399 117.41 55.6299 117.34 55.8766 117.2C56.1232 117.06 56.2466 116.867 56.2466 116.62C56.2466 116.38 56.1566 116.197 55.9766 116.07C55.7966 115.937 55.5199 115.837 55.1466 115.77L54.4966 115.65C54.0499 115.57 53.6899 115.41 53.4166 115.17C53.1432 114.93 53.0066 114.603 53.0066 114.19C53.0066 113.91 53.0899 113.66 53.2566 113.44C53.4299 113.22 53.6632 113.05 53.9566 112.93C54.2566 112.803 54.5899 112.74 54.9566 112.74C55.4499 112.74 55.8766 112.843 56.2366 113.05C56.6032 113.25 56.8332 113.603 56.9266 114.11L56.1566 114.28C56.0766 113.98 55.9299 113.773 55.7166 113.66C55.5032 113.54 55.2499 113.48 54.9566 113.48C54.6699 113.48 54.4132 113.543 54.1866 113.67C53.9599 113.797 53.8466 113.967 53.8466 114.18C53.8466 114.4 53.9366 114.57 54.1166 114.69C54.3032 114.803 54.5532 114.887 54.8666 114.94L55.6166 115.07C56.0899 115.15 56.4532 115.31 56.7066 115.55C56.9599 115.783 57.0866 116.127 57.0866 116.58C57.0866 116.893 56.9932 117.17 56.8066 117.41C56.6199 117.643 56.3699 117.827 56.0566 117.96C55.7432 118.093 55.3932 118.16 55.0066 118.16ZM61.9427 118.15C61.4427 118.15 61.036 118.01 60.7227 117.73C60.4093 117.45 60.2527 117.04 60.2527 116.5V113.66H59.0427V112.9H60.2527V111.5H61.0927V112.9H62.9927V113.66H61.0927V116.4C61.0927 116.707 61.1727 116.943 61.3327 117.11C61.4993 117.277 61.7493 117.36 62.0827 117.36C62.2093 117.36 62.336 117.343 62.4627 117.31C62.5893 117.277 62.706 117.233 62.8127 117.18L63.0427 117.88C62.9093 117.953 62.756 118.017 62.5827 118.07C62.416 118.123 62.2027 118.15 61.9427 118.15ZM65.4088 120.24C65.2088 120.24 65.0388 120.227 64.8988 120.2C64.7654 120.18 64.6421 120.15 64.5288 120.11V119.33C64.6088 119.357 64.7188 119.39 64.8588 119.43C65.0054 119.47 65.1688 119.49 65.3488 119.49C65.5821 119.49 65.7654 119.417 65.8988 119.27C66.0388 119.13 66.1688 118.907 66.2888 118.6L66.8588 117.16L68.6388 112.9H69.5488L66.9988 118.93C66.8788 119.217 66.7488 119.457 66.6087 119.65C66.4754 119.843 66.3121 119.99 66.1188 120.09C65.9321 120.19 65.6954 120.24 65.4088 120.24ZM66.5888 118.1L64.4888 112.9H65.4088L66.9488 116.89H67.0088L66.5888 118.1ZM70.7648 118V117.24H72.5448V111.6H71.0648V110.84H73.3848V117.24H75.1648V118H70.7648ZM79.0409 118.16C78.5343 118.16 78.0943 118.043 77.7209 117.81C77.3543 117.577 77.0709 117.257 76.8709 116.85C76.6776 116.437 76.5809 115.973 76.5809 115.46C76.5809 114.933 76.6809 114.467 76.8809 114.06C77.0876 113.647 77.3743 113.323 77.7409 113.09C78.1143 112.857 78.5443 112.74 79.0309 112.74C79.7643 112.74 80.3309 112.957 80.7309 113.39C81.1376 113.823 81.3409 114.41 81.3409 115.15C81.3409 115.243 81.3376 115.33 81.3309 115.41C81.3309 115.483 81.3276 115.55 81.3209 115.61H77.3509V114.92H80.4709C80.4576 114.487 80.3276 114.14 80.0809 113.88C79.8409 113.62 79.4909 113.49 79.0309 113.49C78.5376 113.49 78.1443 113.66 77.8509 114C77.5576 114.333 77.4109 114.82 77.4109 115.46C77.4109 116.073 77.5609 116.55 77.8609 116.89C78.1609 117.223 78.5643 117.39 79.0709 117.39C79.4643 117.39 79.7676 117.307 79.9809 117.14C80.1943 116.967 80.3509 116.747 80.4509 116.48L81.1909 116.68C81.0709 117.113 80.8276 117.47 80.4609 117.75C80.1009 118.023 79.6276 118.16 79.0409 118.16ZM84.957 118.06C84.757 118.06 84.5837 117.987 84.437 117.84C84.2904 117.693 84.217 117.52 84.217 117.32C84.217 117.12 84.2904 116.947 84.437 116.8C84.5837 116.653 84.757 116.58 84.957 116.58C85.157 116.58 85.3304 116.653 85.477 116.8C85.6237 116.947 85.697 117.12 85.697 117.32C85.697 117.52 85.6237 117.693 85.477 117.84C85.3304 117.987 85.157 118.06 84.957 118.06ZM91.0231 118.16C90.5431 118.16 90.1231 118.05 89.7631 117.83C89.4031 117.603 89.1231 117.287 88.9231 116.88C88.7231 116.473 88.6231 115.997 88.6231 115.45C88.6231 114.903 88.7265 114.427 88.9331 114.02C89.1465 113.613 89.4365 113.3 89.8031 113.08C90.1698 112.853 90.5865 112.74 91.0531 112.74C91.6731 112.74 92.1765 112.893 92.5631 113.2C92.9565 113.507 93.1931 113.913 93.2731 114.42L92.4631 114.56C92.3965 114.253 92.2398 114.003 91.9931 113.81C91.7531 113.61 91.4365 113.51 91.0431 113.51C90.5898 113.51 90.2131 113.68 89.9131 114.02C89.6131 114.353 89.4631 114.83 89.4631 115.45C89.4631 116.063 89.6098 116.54 89.9031 116.88C90.2031 117.22 90.5831 117.39 91.0431 117.39C91.4231 117.39 91.7265 117.303 91.9531 117.13C92.1865 116.95 92.3565 116.687 92.4631 116.34L93.2331 116.53C93.1131 117.017 92.8665 117.41 92.4931 117.71C92.1198 118.01 91.6298 118.16 91.0231 118.16ZM96.9792 118.16C96.3726 118.16 95.8892 118.023 95.5292 117.75C95.1759 117.477 94.9359 117.097 94.8092 116.61L95.6292 116.44C95.6959 116.727 95.8459 116.96 96.0792 117.14C96.3126 117.32 96.6126 117.41 96.9792 117.41C97.3126 117.41 97.6026 117.34 97.8492 117.2C98.0959 117.06 98.2192 116.867 98.2192 116.62C98.2192 116.38 98.1292 116.197 97.9492 116.07C97.7692 115.937 97.4926 115.837 97.1192 115.77L96.4692 115.65C96.0226 115.57 95.6626 115.41 95.3892 115.17C95.1159 114.93 94.9792 114.603 94.9792 114.19C94.9792 113.91 95.0626 113.66 95.2292 113.44C95.4026 113.22 95.6359 113.05 95.9292 112.93C96.2292 112.803 96.5626 112.74 96.9292 112.74C97.4226 112.74 97.8492 112.843 98.2092 113.05C98.5759 113.25 98.8059 113.603 98.8992 114.11L98.1292 114.28C98.0492 113.98 97.9026 113.773 97.6892 113.66C97.4759 113.54 97.2226 113.48 96.9292 113.48C96.6426 113.48 96.3859 113.543 96.1592 113.67C95.9326 113.797 95.8192 113.967 95.8192 114.18C95.8192 114.4 95.9092 114.57 96.0892 114.69C96.2759 114.803 96.5259 114.887 96.8392 114.94L97.5892 115.07C98.0626 115.15 98.4259 115.31 98.6792 115.55C98.9326 115.783 99.0592 116.127 99.0592 116.58C99.0592 116.893 98.9659 117.17 98.7792 117.41C98.5926 117.643 98.3426 117.827 98.0292 117.96C97.7159 118.093 97.3659 118.16 96.9792 118.16ZM102.975 118.16C102.369 118.16 101.885 118.023 101.525 117.75C101.172 117.477 100.932 117.097 100.805 116.61L101.625 116.44C101.692 116.727 101.842 116.96 102.075 117.14C102.309 117.32 102.609 117.41 102.975 117.41C103.309 117.41 103.599 117.34 103.845 117.2C104.092 117.06 104.215 116.867 104.215 116.62C104.215 116.38 104.125 116.197 103.945 116.07C103.765 115.937 103.489 115.837 103.115 115.77L102.465 115.65C102.019 115.57 101.659 115.41 101.385 115.17C101.112 114.93 100.975 114.603 100.975 114.19C100.975 113.91 101.059 113.66 101.225 113.44C101.399 113.22 101.632 113.05 101.925 112.93C102.225 112.803 102.559 112.74 102.925 112.74C103.419 112.74 103.845 112.843 104.205 113.05C104.572 113.25 104.802 113.603 104.895 114.11L104.125 114.28C104.045 113.98 103.899 113.773 103.685 113.66C103.472 113.54 103.219 113.48 102.925 113.48C102.639 113.48 102.382 113.543 102.155 113.67C101.929 113.797 101.815 113.967 101.815 114.18C101.815 114.4 101.905 114.57 102.085 114.69C102.272 114.803 102.522 114.887 102.835 114.94L103.585 115.07C104.059 115.15 104.422 115.31 104.675 115.55C104.929 115.783 105.055 116.127 105.055 116.58C105.055 116.893 104.962 117.17 104.775 117.41C104.589 117.643 104.339 117.827 104.025 117.96C103.712 118.093 103.362 118.16 102.975 118.16ZM107.541 113.75V110.84H108.311V113.75H107.541ZM109.571 113.75V110.84H110.341V113.75H109.571ZM113.018 116.97V116.19L115.978 114.44V114.4L113.018 112.65V111.87L116.858 114.11V114.73L113.018 116.97Z" fill="#363637"/>
</svg>
