<svg width="40" height="40" viewBox="0 0 40 40" fill="none" focusable="false" class=" NMm5M" xmlns="http://www.w3.org/2000/svg"><path d="M38.333 13.333c0 1.834-1.5 3.334-3.333 3.334a2.833 2.833 0 0 1-.85-.117l-5.933 5.917c.083.266.116.566.116.866 0 1.834-1.5 3.334-3.333 3.334a3.343 3.343 0 0 1-3.333-3.334c0-.3.033-.6.116-.866l-4.25-4.25a2.944 2.944 0 0 1-.866.116c-.3 0-.6-.033-.867-.116l-7.583 7.6c.083.266.116.55.116.85C8.333 28.5 6.833 30 5 30a3.343 3.343 0 0 1-3.333-3.333c0-1.834 1.5-3.334 3.333-3.334.3 0 .583.034.85.117l7.6-7.583a2.946 2.946 0 0 1-.117-.867c0-1.833 1.5-3.333 3.334-3.333C18.5 11.667 20 13.167 20 15c0 .3-.033.6-.117.867l4.25 4.25C24.4 20.033 24.7 20 25 20c.3 0 .6.033.867.117l5.916-5.934a2.833 2.833 0 0 1-.116-.85C31.667 11.5 33.167 10 35 10c1.833 0 3.333 1.5 3.333 3.333Z" fill="#1A73E8"></path></svg>