<svg xmlns="http://www.w3.org/2000/svg" width="24" height="24" viewBox="0 0 24 24" fill="none"><path d="M9 17H10C10 15.95 10.1667 15.0917 10.5 14.425C10.8333 13.7417 11 13.4 11 13.4V8H9V17ZM13 11.25C13.2833 11.0667 13.6 10.8833 13.95 10.7C14.3167 10.5167 14.6667 10.3833 15 10.3V8H13V11.25ZM17 22C15.6167 22 14.4333 21.5167 13.45 20.55C12.4833 19.5667 12 18.3833 12 17C12 15.6167 12.4833 14.4417 13.45 13.475C14.4333 12.4917 15.6167 12 17 12C18.3833 12 19.5583 12.4917 20.525 13.475C21.5083 14.4417 22 15.6167 22 17C22 18.3833 21.5083 19.5667 20.525 20.55C19.5583 21.5167 18.3833 22 17 22ZM18.65 19.35L19.35 18.65L17.5 16.8V14H16.5V17.2L18.65 19.35Z" fill="currentColor"></path><path d="M7 10V6H5V19C5 19.55 5.19167 20.025 5.575 20.425C5.975 20.8083 6.45 21 7 21H11.25C11.05 20.7 10.8667 20.3833 10.7 20.05C10.5333 19.7 10.4 19.35 10.3 19H7V18.025V17V12.05V10Z" fill="currentColor"></path><path d="M19 10.3V6H17V10C17.3 10 17.6333 10.0333 18 10.1C18.3833 10.15 18.7167 10.2167 19 10.3Z" fill="currentColor"></path></svg>