<svg width="40" height="40" viewBox="0 0 40 40" fill="none" focusable="false" class=" NMm5M" xmlns="http://www.w3.org/2000/svg"><g clip-path="url(#a)"><path d="M24.667 21.333v4.5h-12v-10.5c0-3.315 2.685-6 6-6 1.275 0 2.46.39 3.42 1.08l2.145-2.145a8.805 8.805 0 0 0-3.315-1.635v-1.05a2.247 2.247 0 0 0-2.25-2.25 2.247 2.247 0 0 0-2.25 2.25v1.05a8.98 8.98 0 0 0-6.75 8.7v10.5h-3v3h24v-3h-3v-4.5h-3Zm-6 12c1.65 0 3-1.35 3-3h-6c0 1.65 1.35 3 3 3Zm18-21h-4.5v-4.5h-3v4.5h-4.5v3h4.5v4.5h3v-4.5h4.5v-3Z" fill="#1A73E8"></path></g><defs><clipPath id="a"><path fill="#fff" d="M0 0h40v40H0z"></path></clipPath></defs></svg>