<svg width="40" height="40" viewBox="0 0 40 40" fill="none" focusable="false" class=" NMm5M" xmlns="http://www.w3.org/2000/svg"><path d="M8 33.333a2.889 2.889 0 0 1-2.119-.88A2.889 2.889 0 0 1 5 30.332v-21c0-.825.294-1.53.881-2.118A2.889 2.889 0 0 1 8 6.333h1.5v-3h3v3h12v-3h3v3H29c.825 0 1.531.294 2.119.882.587.587.881 1.293.881 2.118v21c0 .825-.294 1.532-.881 2.12a2.889 2.889 0 0 1-2.119.88H8Zm0-3h21v-15H8v15Zm0-18h21v-3H8v3Zm10.5 9c-.425 0-.781-.143-1.069-.43a1.452 1.452 0 0 1-.431-1.07c0-.425.144-.78.431-1.068a1.451 1.451 0 0 1 1.069-.432c.425 0 .781.144 1.069.432.287.287.431.643.431 1.068 0 .425-.144.782-.431 1.07a1.451 1.451 0 0 1-1.069.43Zm-6 0c-.425 0-.781-.143-1.069-.43a1.452 1.452 0 0 1-.431-1.07c0-.425.144-.78.431-1.068a1.451 1.451 0 0 1 1.069-.432c.425 0 .781.144 1.069.432.287.287.431.643.431 1.068 0 .425-.144.782-.431 1.07a1.452 1.452 0 0 1-1.069.43Zm12 0c-.425 0-.781-.143-1.069-.43a1.452 1.452 0 0 1-.431-1.07c0-.425.144-.78.431-1.068a1.451 1.451 0 0 1 1.069-.432c.425 0 .781.144 1.069.432.287.287.431.643.431 1.068 0 .425-.144.782-.431 1.07a1.452 1.452 0 0 1-1.069.43Zm-6 6c-.425 0-.781-.143-1.069-.43a1.452 1.452 0 0 1-.431-1.07c0-.425.144-.78.431-1.068a1.451 1.451 0 0 1 1.069-.432c.425 0 .781.144 1.069.432.287.287.431.643.431 1.068 0 .425-.144.782-.431 1.07a1.451 1.451 0 0 1-1.069.43Zm-6 0c-.425 0-.781-.143-1.069-.43a1.452 1.452 0 0 1-.431-1.07c0-.425.144-.78.431-1.068a1.451 1.451 0 0 1 1.069-.432c.425 0 .781.144 1.069.432.287.287.431.643.431 1.068 0 .425-.144.782-.431 1.07a1.452 1.452 0 0 1-1.069.43Zm12 0c-.425 0-.781-.143-1.069-.43a1.452 1.452 0 0 1-.431-1.07c0-.425.144-.78.431-1.068a1.451 1.451 0 0 1 1.069-.432c.425 0 .781.144 1.069.432.287.287.431.643.431 1.068 0 .425-.144.782-.431 1.07a1.452 1.452 0 0 1-1.069.43Z" fill="#1A73E8"></path></svg>